<svg xmlns="http://www.w3.org/2000/svg" width="640" height="400" viewBox="0 0 640 400"><rect width="640" height="400" fill="#f5e5e8"/><path d="M90 310h460" stroke="#d4b6bd" stroke-width="2"/><rect x="135" y="91" width="220" height="154" rx="30" fill="#fffefa"/><path d="m182 232-12 44 65-39" fill="#fffefa"/><rect x="300" y="178" width="210" height="112" rx="28" fill="#89a58e"/><path d="m458 279 19 37-65-30" fill="#89a58e"/><g fill="#a84161"><circle cx="193" cy="165" r="12"/><circle cx="245" cy="165" r="12"/><circle cx="297" cy="165" r="12"/></g><path d="M347 232c18-22 30 5 30 5s12-27 30-5c15 19-30 41-30 41s-45-22-30-41" fill="#fffefa"/><circle cx="508" cy="99" r="24" fill="#dfbd65"/><circle cx="101" cy="238" r="15" fill="#8a9fbe"/></svg>
